<svg xmlns="http://www.w3.org/2000/svg" width="751.08" height="266.19" viewBox="0 0 751.08 266.19">
  <g id="Group_222" data-name="Group 222" transform="translate(-154.92 -811.81)">
    <g id="Logo" transform="translate(0 -32)">
      <text id="Wissen_greifbar_machen_" data-name="Wissen greifbar machen!" transform="translate(297 1097)" fill="#c80047" font-size="50" font-family="Quicksand-Bold, Quicksand" font-weight="700"><tspan x="0" y="0">Wissen greifbar machen!</tspan></text>
      <text id="_3DThinking" data-name="3DThinking" transform="translate(906 1018)" fill="#1f4266" font-size="100" font-family="Quicksand-Bold, Quicksand" font-weight="700"><tspan x="-529.5" y="0">3DThinking</tspan></text>
    </g>
    <g id="Logo-Hand" transform="translate(154.92 811.81)">
      <g id="Group_139" data-name="Group 139">
        <path id="Path_289" data-name="Path 289" d="M27.37,123.452c1.675,3.212,1.8,6.986,2.3,10.021,1.008,6.134,5.661,8.954,1.984,10.873-3.373,1.759-12.514.783-16.677-2.811-2.621-2.26-5.174-3.942-7.129-7.691-2.094-4.017-3.96-9.1-4.22-12.732a10.527,10.527,0,0,1,5.438-10.462c3.289-1.716,7.518.032,11.6,3.432C23.395,116.36,25.338,119.556,27.37,123.452Z" transform="translate(-3.593 -35.793)" fill="#1f4266"/>
        <path id="Path_290" data-name="Path 290" d="M45.295,175.323c-1.878,1.878-2.592,4.2-5.248,3.165a14.7,14.7,0,0,1-4.141-2.515c-1.08-1.081-1.525-3.9-1.952-5.2-.829-2.53-2.1-2.484-.327-4.259,1.667-1.664,2.993-.884,5.38-.251,1.466.387,2.382,1.808,3.592,3.018,1.108,1.108,5.256-1.4,5.676-.06C49.059,171.719,47.045,173.573,45.295,175.323Z" transform="translate(-11.621 -51.093)" fill="#1f4266"/>
        <path id="Path_291" data-name="Path 291" d="M113.09,47.5c.28,6.092,4.362,16.837,3.816,22.034-1.424,13.518-3.123,16.329-8.193,16.561-4.33.2-9.476-6.48-10.5-16.2-.682-6.5-1.119-14.983-1.5-23.386-.335-7.312-3.8-19.754-2.972-25.689C95.4,8.94,99.654,8.082,104.334,7.867c4.309-.2,7.183-2.184,9.951,7.972C116.025,22.219,112.7,39.033,113.09,47.5Z" transform="translate(-28.393 -7.582)" fill="#c8114a"/>
        <path id="Path_292" data-name="Path 292" d="M175.421,32.909c-1.273,4.693-8.445,9.558-10.61,12.745-3.248,4.787-6.447,12.861-9.755,11.964-4.017-1.09-1.662-11.2-1.267-18.92.149-2.869-1.989-6.9-1.127-10.078,1.143-4.217,4.125-12.022,6.016-15.057,3.372-5.414,9.626-5.24,13.156-4.282,3.281.89,5.46,6.067,5.864,11.774C177.974,24.927,176.71,28.165,175.421,32.909Z" transform="translate(-44.605 -7.906)" fill="#1f4266"/>
        <path id="Path_293" data-name="Path 293" d="M154.338,99.418c-.561,2.1-2.534,3.252-3.523,4.8-2.008,3.148-1.35,8.962-3.675,8.34-2.041-.546-.7-5.526-1.114-8.591-.291-2.154-2.313-4.1-1.612-6.727.73-2.726.106-9.935,1.5-11.676,1.857-2.323,4.964-6,6.949-5.466,1.829.488,5.88,5.555,6.419,8.143C159.765,90.574,155.145,96.4,154.338,99.418Z" transform="translate(-42.349 -27.547)" fill="#1f4266"/>
        <path id="Path_294" data-name="Path 294" d="M226.494,57.717c-1.673,4.2-4.488,7.666-6.73,10.7-4.541,6.152-10.317,15.671-14.174,14.134-3.663-1.458-1-10.236-.349-17.279.375-4.035-1.019-12.907.825-17.539,2.578-6.47,5.146-11.57,8.758-14.975,3.487-3.286,10.369-2.83,13.2-1.7,3.477,1.385,5.477,1.35,5.072,7.879C232.828,43.222,228.5,52.678,226.494,57.717Z" transform="translate(-58.722 -13.819)" fill="#1f4266"/>
        <path id="Path_295" data-name="Path 295" d="M202.76,115.6c-.556,1.441-5.954,4.224-6.6,5.334-1.444,2.463-4.544,5.187-5.517,4.813-1.075-.413-.417-6.063.4-9.308.254-1.006,1.34-5.7,1.763-6.8.641-1.664,2.845-2.51,3.6-3.717,1.353-2.158,2.81-1.048,3.714-.7.994.382,3.509,3.367,2.879,6.26C202.734,112.7,203.286,114.238,202.76,115.6Z" transform="translate(-54.97 -34.32)" fill="#1f4266"/>
        <path id="Path_296" data-name="Path 296" d="M248.1,121.244c-3.085,3.349-5.82,8.679-8.687,10.873-5.054,3.864-12.479,3.956-14.078,2.48-1.917-1.766,3.365-6.109,8.394-12.911,1.555-2.1,4.413-4.38,6.423-6.563,2.877-3.125,6.28-16.761,8.99-18.893,5.307-4.175,11.8-2.062,13.461-.533,1.855,1.708,3.988,9.491-.716,16.015C260.229,114.011,250.32,118.833,248.1,121.244Z" transform="translate(-64.572 -31.331)" fill="#1f4266"/>
        <path id="Path_297" data-name="Path 297" d="M216.039,161.8c-1.055,1.2-1.671,2.526-2.77,3.117-1.51.81-2.436.993-3.224.3-.9-.794-3.031-3.541-2.124-5.437.459-.96,1.769-1.1,2.611-2.054a17.407,17.407,0,0,1,3.291-2.381c1.793-1.19,4.664-3.666,5.582-2.859.835.732-.19,4.175-.911,5.9A14.515,14.515,0,0,1,216.039,161.8Z" transform="translate(-59.825 -47.461)" fill="#1f4266"/>
        <path id="Path_298" data-name="Path 298" d="M160.925,165.923c-3.041-2.306-13.311,3.121-12.958,1.075,1.18-6.833-.635-9.272-1.918-15.556-1.459-7.138-12.884-7.932-16.96-13.469-.27-.367-.539-.7-.808-1.026v5.283l-6.362,3.119a25.494,25.494,0,0,1-2.367,5.616l2.276,6.686-5.183,5.082-6.817-2.227a24.514,24.514,0,0,1-5.639,2.318L101,169.063H93.727l-3.183-6.239a26.885,26.885,0,0,1-5.729-2.318L78,162.733l-1.927-1.889a34.588,34.588,0,0,1-3.349,8.6c-3.488,5.615-18.8,6.286-20.022,13.342-.83,4.8-4.046,7.412-3.629,11.992.511,5.605,8.037,19.964,10.183,24.858,3.311,7.557,15.366,7.816,21.788,12.427,4.817,3.459,17.784-.533,23.882.521,6.557,1.132,12.739,6.551,18.808,4.589,4.994-1.616,8.357-2.468,12.564-5.82,3.254-2.592,12.444-20.19,15.893-31.575,2.925-9.651,9.745-22.059,11.245-25.277C164.564,172.069,165.1,169.089,160.925,165.923Z" transform="translate(-16.111 -43.223)" fill="#1f4266"/>
        <path id="Path_299" data-name="Path 299" d="M113.286,145.148a8.744,8.744,0,1,1,8.921-8.745,8.857,8.857,0,0,1-8.921,8.745Z" transform="translate(-31.355 -40.665)" fill="#c8114a"/>
      </g>
    </g>
  </g>
</svg>
